<?xml version="1.0" standalone="no"?><!DOCTYPE svg PUBLIC "-//W3C//DTD SVG 1.1//EN" "http://www.w3.org/Graphics/SVG/1.1/DTD/svg11.dtd"><svg t="1683614297475" class="icon" viewBox="0 0 1024 1024" version="1.1" xmlns="http://www.w3.org/2000/svg" p-id="4975" xmlns:xlink="http://www.w3.org/1999/xlink" width="200" height="200"><path d="M260.7 687.4L126.6 731c24.7 56.8 61.5 107 107.2 147.5l82.9-114c-22.7-22.3-41.7-48.3-56-77.1z" fill="#FAD60E" p-id="4976"></path><path d="M512 303.2l31.4 311.7-31.4 40-31.4-40z" fill="#A6DB20" p-id="4977"></path><path d="M573.9 782.9H450.1c-22.5 0-40.8-18.3-40.8-40.8 0-22.5 18.3-40.8 40.8-40.8h123.8c22.5 0 40.8 18.3 40.8 40.8 0 22.6-18.3 40.8-40.8 40.8z" fill="#69B209" p-id="4978"></path><path d="M232 563.7c0-16.2 1.4-32.1 4-47.6l-134.1-43.6c-6.5 29.4-9.9 59.9-9.9 91.2s3.4 61.8 9.9 91.2L236 611.3c-2.6-15.5-4-31.4-4-47.6z" fill="#F9AB10" p-id="4979"></path><path d="M233.9 249c-45.7 40.5-82.6 90.7-107.2 147.5l134.1 43.6c14.2-28.8 33.2-54.8 56-77L233.9 249z" fill="#F9980D" p-id="4980"></path><path d="M552 145.6v141c32.3 4.6 62.8 14.7 90.6 29.4l82.9-114c-51.8-30.7-110.6-50.5-173.5-56.4z" fill="#DB3412" p-id="4981"></path><path d="M763.3 687.4c-14.2 28.8-33.2 54.8-56 77l82.9 114c45.7-40.5 82.6-90.7 107.2-147.5l-134.1-43.5z" fill="#551FEA" p-id="4982"></path><path d="M922.1 472.5L788 516.1c2.7 15.5 4 31.4 4 47.6s-1.4 32.1-4 47.6l134.1 43.6c6.5-29.3 9.9-59.9 9.9-91.2s-3.4-61.8-9.9-91.2z" fill="#6F2AFF" p-id="4983"></path><path d="M790.1 249l-82.9 114c22.8 22.2 41.8 48.2 56 77l134.1-43.6c-24.6-56.7-61.5-107-107.2-147.4z" fill="#C61700" p-id="4984"></path><path d="M298.6 201.9l82.9 114c27.8-14.7 58.3-24.8 90.6-29.4v-141c-63 6-121.8 25.8-173.5 56.4z" fill="#F5461A" p-id="4985"></path></svg>