<?xml version="1.0" standalone="no"?><!DOCTYPE svg PUBLIC "-//W3C//DTD SVG 1.1//EN" "http://www.w3.org/Graphics/SVG/1.1/DTD/svg11.dtd"><svg t="1683614517215" class="icon" viewBox="0 0 1024 1024" version="1.1" xmlns="http://www.w3.org/2000/svg" p-id="15602" xmlns:xlink="http://www.w3.org/1999/xlink" width="200" height="200"><path d="M512 960C264.97 960 64 759.03 64 512S264.97 64 512 64s448 200.97 448 448-200.97 448-448 448z m0-809.29c-199.22 0-361.29 162.07-361.29 361.29S312.78 873.29 512 873.29 873.29 711.22 873.29 512 711.22 150.71 512 150.71z" fill="#ffffff" p-id="15603"></path><path d="M656.52 519.54H367.48c-23.94 0-43.35-19.41-43.35-43.35 0-23.95 19.42-43.35 43.35-43.35h289.03c23.94 0 43.35 19.41 43.35 43.35 0.01 23.94-19.41 43.35-43.34 43.35zM656.52 669.32H367.48c-23.94 0-43.35-19.41-43.35-43.35 0-23.95 19.42-43.35 43.35-43.35h289.03c23.94 0 43.35 19.41 43.35 43.35 0.01 23.94-19.41 43.35-43.34 43.35z" fill="#ffffff" p-id="15604"></path><path d="M512 790.19c-23.94 0-43.35-19.41-43.35-43.35V476.18c0-23.95 19.42-43.35 43.35-43.35s43.35 19.41 43.35 43.35v270.66c0 23.95-19.41 43.35-43.35 43.35z" fill="#ffffff" p-id="15605"></path><path d="M511.97 519.54c-9.57 0-19.22-3.16-27.24-9.65-18.63-15.06-21.51-42.35-6.44-60.97L592.53 307.7c15.02-18.6 42.34-21.52 60.97-6.44 18.63 15.06 21.51 42.35 6.44 60.97L545.7 503.45c-8.55 10.58-21.08 16.09-33.73 16.09z" fill="#ffffff" p-id="15606"></path><path d="M512.03 519.54c-12.65 0-25.18-5.49-33.73-16.09L364.07 362.23c-15.07-18.61-12.19-45.91 6.44-60.97 18.63-15.06 45.95-12.17 60.97 6.44L545.7 448.92c15.07 18.61 12.19 45.91-6.44 60.97a43.14 43.14 0 0 1-27.23 9.65z" fill="#ffffff" p-id="15607"></path></svg>