<?xml version="1.0" standalone="no"?><!DOCTYPE svg PUBLIC "-//W3C//DTD SVG 1.1//EN" "http://www.w3.org/Graphics/SVG/1.1/DTD/svg11.dtd"><svg t="1683614364251" class="icon" viewBox="0 0 1024 1024" version="1.1" xmlns="http://www.w3.org/2000/svg" p-id="6914" xmlns:xlink="http://www.w3.org/1999/xlink" width="200" height="200"><path d="M906.938 594.581l-47.738-27.56A354.235 354.235 0 0 0 863.5 512c0-17.482-1.304-34.978-3.886-52.259l47.323-27.322c14.689-8.481 25.196-22.174 29.587-38.558 4.39-16.384 2.137-33.497-6.344-48.185l-64-110.853c-11.309-19.586-32.393-31.754-55.021-31.754a63.535 63.535 0 0 0-31.721 8.513l-46.656 26.937c-28.258-22.797-60.084-41.239-93.781-54.345V130.5c0-35.014-28.486-63.5-63.5-63.5h-128c-35.014 0-63.5 28.486-63.5 63.5v54.074c-33.489 13.143-65.122 31.568-93.195 54.283l-47.242-27.275a63.532 63.532 0 0 0-31.72-8.513c-22.63 0-43.713 12.168-55.022 31.755l-64 110.851c-17.507 30.322-7.081 69.235 23.242 86.743l48.245 27.854A353.89 353.89 0 0 0 160.502 512c0 18.253 1.416 36.499 4.219 54.489l-48.657 28.093c-30.323 17.508-40.749 56.42-23.242 86.742l64 110.852c11.309 19.587 32.393 31.755 55.023 31.755a63.536 63.536 0 0 0 31.72-8.512l49.4-28.521c27.514 21.899 58.4 39.721 91.037 52.528V896.5c0 35.014 28.486 63.5 63.5 63.5h128c35.014 0 63.5-28.486 63.5-63.5v-56.674c32.843-12.771 63.932-30.599 91.624-52.574l48.813 28.199c9.645 5.568 20.612 8.549 31.719 8.549h0.004c22.627 0 43.711-12.203 55.021-31.789l63.999-110.887c8.481-14.689 10.734-31.802 6.345-48.186-4.393-16.383-14.901-30.076-29.589-38.557z m-31.318 55.243l-63.999 110.851c-0.036 0.063-0.147 0.256-0.461 0.256-0.057 0-0.106-0.006-0.223-0.073l-68.021-39.271a31.495 31.495 0 0 0-36.938 3.97c-30.914 28.099-68.215 49.496-107.868 61.879A31.5 31.5 0 0 0 576 817.504V896.5c0 0.275-0.225 0.5-0.5 0.5h-128a0.5 0.5 0 0 1-0.5-0.5v-79.322a31.501 31.501 0 0 0-22.011-30.037c-39.463-12.467-76.571-33.874-107.313-61.906a31.476 31.476 0 0 0-21.232-8.225 31.438 31.438 0 0 0-15.742 4.221l-68.639 39.628c-0.125 0.072-0.172 0.072-0.221 0.072-0.316 0-0.427-0.192-0.463-0.255l-64-110.852a0.502 0.502 0 0 1 0.183-0.684l68.017-39.269a31.5 31.5 0 0 0 14.98-34.199 290.537 290.537 0 0 1-0.522-124.944 31.5 31.5 0 0 0-15.039-33.935l-67.437-38.935a0.501 0.501 0 0 1-0.183-0.684l64-110.851c0.037-0.063 0.147-0.255 0.463-0.255 0.055 0 0.104 0.005 0.22 0.072l66.651 38.481a31.5 31.5 0 0 0 37.171-4.184c31.14-28.882 68.868-50.867 109.105-63.579a31.5 31.5 0 0 0 22.011-30.037V130.5a0.5 0.5 0 0 1 0.5-0.5h128a0.5 0.5 0 0 1 0.5 0.5v75.998a31.5 31.5 0 0 0 22.11 30.068c40.422 12.622 78.342 34.598 109.661 63.55a31.499 31.499 0 0 0 37.133 4.149l66.033-38.124c0.126-0.073 0.174-0.073 0.221-0.073 0.315 0 0.426 0.193 0.462 0.255l64.001 110.853c0.056 0.096 0.104 0.179 0.05 0.378-0.054 0.201-0.138 0.249-0.233 0.304l-66.549 38.422a31.499 31.499 0 0 0-15.027 33.987 290.46 290.46 0 0 1 6.639 61.732c0 21.617-2.409 43.195-7.16 64.134a31.5 31.5 0 0 0 14.969 34.251l67.13 38.757c0.096 0.056 0.179 0.104 0.232 0.303 0.054 0.201 0.006 0.284-0.051 0.38z" fill="#ffffff" p-id="6915"></path><path d="M512 352.5c-87.949 0-159.5 71.551-159.5 159.5 0 87.948 71.551 159.5 159.5 159.5 87.948 0 159.5-71.552 159.5-159.5 0-87.949-71.552-159.5-159.5-159.5z m0 256c-53.21 0-96.5-43.29-96.5-96.5s43.29-96.5 96.5-96.5 96.5 43.29 96.5 96.5-43.29 96.5-96.5 96.5z" fill="#ffffff" p-id="6916"></path></svg>